<svg width="26" height="26" viewBox="0 0 26 26" fill="none" xmlns="http://www.w3.org/2000/svg">
<path d="M6.42008 15.4656L5.59733 18.537L2.5902 18.6006C1.69151 16.9338 1.18176 15.0266 1.18176 13C1.18176 11.0403 1.65837 9.1922 2.50318 7.56494H2.50383L5.18102 8.05576L6.35379 10.7169C6.10833 11.4325 5.97454 12.2007 5.97454 13C5.97464 13.8675 6.13178 14.6987 6.42008 15.4656Z" fill="#FBBB00"/>
<path d="M24.6116 10.7922C24.7474 11.5071 24.8181 12.2455 24.8181 13C24.8181 13.8461 24.7292 14.6715 24.5597 15.4676C23.9844 18.1767 22.4811 20.5422 20.3987 22.2163L20.398 22.2156L17.026 22.0436L16.5487 19.0643C17.9305 18.2539 19.0104 16.9857 19.5793 15.4676H13.2598V10.7922H19.6715H24.6116Z" fill="#518EF8"/>
<path d="M20.398 22.2158L20.3986 22.2164C18.3733 23.8444 15.8006 24.8184 12.9999 24.8184C8.4993 24.8184 4.58633 22.3028 2.59021 18.6009L6.42008 15.4658C7.41812 18.1294 9.98761 20.0256 12.9999 20.0256C14.2947 20.0256 15.5078 19.6755 16.5486 19.0645L20.398 22.2158Z" fill="#28B446"/>
<path d="M20.5434 3.90265L16.7149 7.03706C15.6376 6.3637 14.3642 5.97471 12.9999 5.97471C9.91941 5.97471 7.30186 7.95781 6.35382 10.7169L2.50382 7.565H2.50317C4.47007 3.77279 8.43239 1.18188 12.9999 1.18188C15.8675 1.18188 18.4967 2.20333 20.5434 3.90265Z" fill="#F14336"/>
</svg>
